HIERARCHY
ROOT Hips
{
	OFFSET 0.000000 100.481300 0.000000
	CHANNELS 6 Xposition Yposition Zposition Xrotation Yrotation Zrotation 
	JOINT Spine
	{
		OFFSET -0.279200 12.230698 -2.892100
		CHANNELS 3 Xrotation Yrotation Zrotation
		JOINT Spine1
		{
			OFFSET -0.232667 10.192268 -1.242267
			CHANNELS 3 Xrotation Yrotation Zrotation
			JOINT Spine1_split
			{
				OFFSET -0.232667 10.192268 -1.242267
				CHANNELS 3 Xrotation Yrotation Zrotation
				JOINT Spine2
				{
					OFFSET -0.232667 10.192268 -1.242267
					CHANNELS 3 Xrotation Yrotation Zrotation
					JOINT Neck
					{
						OFFSET -0.418800 17.814194 8.416900
						CHANNELS 3 Xrotation Yrotation Zrotation
						JOINT Head
						{
							OFFSET 0.000000 7.031097 3.806800
							CHANNELS 3 Xrotation Yrotation Zrotation
							JOINT HeadTop_End
							{
								OFFSET 0.000000 24.646606 12.978600
								CHANNELS 3 Xrotation Yrotation Zrotation
								End Site
								{
									OFFSET 0.000000 0.000000 0.000000
								}
							}
						}
					}
					JOINT LeftShoulder
					{
						OFFSET 8.476499 7.247704 -3.868750
						CHANNELS 3 Xrotation Yrotation Zrotation
						JOINT LeftShoulder_split
						{
							OFFSET 8.476499 7.247704 -3.868750
							CHANNELS 3 Xrotation Yrotation Zrotation
							JOINT LeftArm
							{
								OFFSET 9.308998 -2.777710 0.208600
								CHANNELS 3 Xrotation Yrotation Zrotation
								JOINT LeftForeArm
								{
									OFFSET 29.972298 0.000000 0.000000
									CHANNELS 3 Xrotation Yrotation Zrotation
									JOINT LeftHand
									{
										OFFSET 26.026505 0.000000 0.000000
										CHANNELS 3 Xrotation Yrotation Zrotation
										JOINT LeftHandThumb1
										{
											OFFSET 12.240501 -7.147949 9.207150
											CHANNELS 3 Xrotation Yrotation Zrotation
											JOINT LeftHandThumb2
											{
												OFFSET 4.138618 -2.389435 2.389433
												CHANNELS 3 Xrotation Yrotation Zrotation
												JOINT LeftHandThumb3
												{
													OFFSET 2.726913 -1.574387 1.574386
													CHANNELS 3 Xrotation Yrotation Zrotation
													JOINT LeftHandThumb4
													{
														OFFSET 3.941010 -2.275345 2.275342
														CHANNELS 3 Xrotation Yrotation Zrotation
														End Site
														{
															OFFSET 0.000000 0.000000 0.000000
														}
													}
												}
											}
										}
										JOINT LeftHandIndex1
										{
											OFFSET 24.424698 -1.985611 5.953459
											CHANNELS 3 Xrotation Yrotation Zrotation
											JOINT LeftHandIndex2
											{
												OFFSET 6.426697 0.000000 0.000000
												CHANNELS 3 Xrotation Yrotation Zrotation
												JOINT LeftHandIndex3
												{
													OFFSET 5.337898 0.000000 0.000000
													CHANNELS 3 Xrotation Yrotation Zrotation
													JOINT LeftHandIndex4
													{
														OFFSET 4.409401 0.000000 0.000000
														CHANNELS 3 Xrotation Yrotation Zrotation
														End Site
														{
															OFFSET 0.000000 0.000000 0.000000
														}
													}
												}
											}
										}
										JOINT LeftHandMiddle1
										{
											OFFSET 23.810104 0.000000 0.000000
											CHANNELS 3 Xrotation Yrotation Zrotation
											JOINT LeftHandMiddle2
											{
												OFFSET 7.176498 0.000000 0.000000
												CHANNELS 3 Xrotation Yrotation Zrotation
												JOINT LeftHandMiddle3
												{
													OFFSET 6.774902 0.000000 0.000000
													CHANNELS 3 Xrotation Yrotation Zrotation
													JOINT LeftHandMiddle4
													{
														OFFSET 5.403328 0.000000 0.000000
														CHANNELS 3 Xrotation Yrotation Zrotation
														End Site
														{
															OFFSET 0.000000 0.000000 0.000000
														}
													}
												}
											}
										}
										JOINT LeftHandRing1
										{
											OFFSET 22.908401 -0.839279 -6.020567
											CHANNELS 3 Xrotation Yrotation Zrotation
											JOINT LeftHandRing2
											{
												OFFSET 6.337502 0.000000 0.000000
												CHANNELS 3 Xrotation Yrotation Zrotation
												JOINT LeftHandRing3
												{
													OFFSET 5.779297 0.000000 0.000000
													CHANNELS 3 Xrotation Yrotation Zrotation
													JOINT LeftHandRing4
													{
														OFFSET 4.965698 0.000000 0.000000
														CHANNELS 3 Xrotation Yrotation Zrotation
														End Site
														{
															OFFSET 0.000000 0.000000 0.000000
														}
													}
												}
											}
										}
										JOINT LeftHandPinky1
										{
											OFFSET 20.037003 -1.530319 -10.950146
											CHANNELS 3 Xrotation Yrotation Zrotation
											JOINT LeftHandPinky2
											{
												OFFSET 5.254700 0.000000 0.000000
												CHANNELS 3 Xrotation Yrotation Zrotation
												JOINT LeftHandPinky3
												{
													OFFSET 4.810204 0.000000 0.000000
													CHANNELS 3 Xrotation Yrotation Zrotation
													JOINT LeftHandPinky4
													{
														OFFSET 3.647202 0.000000 0.000000
														CHANNELS 3 Xrotation Yrotation Zrotation
														End Site
														{
															OFFSET 0.000000 0.000000 0.000000
														}
													}
												}
											}
										}
									}
								}
							}
						}
					}
					JOINT RightShoulder
					{
						OFFSET -7.570500 7.247704 -3.868750
						CHANNELS 3 Xrotation Yrotation Zrotation
						JOINT RightShoulder_split
						{
							OFFSET -7.570500 7.247704 -3.868750
							CHANNELS 3 Xrotation Yrotation Zrotation
							JOINT RightArm
							{
								OFFSET -9.308998 -2.777710 0.208500
								CHANNELS 3 Xrotation Yrotation Zrotation
								JOINT RightForeArm
								{
									OFFSET -29.972300 0.000000 0.000000
									CHANNELS 3 Xrotation Yrotation Zrotation
									JOINT RightHand
									{
										OFFSET -26.026505 0.000000 0.000000
										CHANNELS 3 Xrotation Yrotation Zrotation
										JOINT RightHandThumb1
										{
											OFFSET -12.240601 -7.148026 9.207092
											CHANNELS 3 Xrotation Yrotation Zrotation
											JOINT RightHandThumb2
											{
												OFFSET -4.138618 -2.389435 2.389433
												CHANNELS 3 Xrotation Yrotation Zrotation
												JOINT RightHandThumb3
												{
													OFFSET -2.726974 -1.574417 1.574421
													CHANNELS 3 Xrotation Yrotation Zrotation
													JOINT RightHandThumb4
													{
														OFFSET -3.941010 -2.275345 2.275343
														CHANNELS 3 Xrotation Yrotation Zrotation
														End Site
														{
															OFFSET 0.000000 0.000000 0.000000
														}
													}
												}
											}
										}
										JOINT RightHandIndex1
										{
											OFFSET -24.424698 -1.985657 5.953444
											CHANNELS 3 Xrotation Yrotation Zrotation
											JOINT RightHandIndex2
											{
												OFFSET -6.426697 0.000000 0.000000
												CHANNELS 3 Xrotation Yrotation Zrotation
												JOINT RightHandIndex3
												{
													OFFSET -5.337898 0.000000 0.000000
													CHANNELS 3 Xrotation Yrotation Zrotation
													JOINT RightHandIndex4
													{
														OFFSET -4.409401 0.000000 0.000000
														CHANNELS 3 Xrotation Yrotation Zrotation
														End Site
														{
															OFFSET 0.000000 0.000000 0.000000
														}
													}
												}
											}
										}
										JOINT RightHandMiddle1
										{
											OFFSET -23.810097 0.000000 0.000000
											CHANNELS 3 Xrotation Yrotation Zrotation
											JOINT RightHandMiddle2
											{
												OFFSET -7.176498 0.000000 0.000000
												CHANNELS 3 Xrotation Yrotation Zrotation
												JOINT RightHandMiddle3
												{
													OFFSET -6.774902 0.000000 0.000000
													CHANNELS 3 Xrotation Yrotation Zrotation
													JOINT RightHandMiddle4
													{
														OFFSET -5.403328 0.000000 0.000000
														CHANNELS 3 Xrotation Yrotation Zrotation
														End Site
														{
															OFFSET 0.000000 0.000000 0.000000
														}
													}
												}
											}
										}
										JOINT RightHandRing1
										{
											OFFSET -22.908302 -0.839325 -6.020576
											CHANNELS 3 Xrotation Yrotation Zrotation
											JOINT RightHandRing2
											{
												OFFSET -6.337502 0.000000 0.000000
												CHANNELS 3 Xrotation Yrotation Zrotation
												JOINT RightHandRing3
												{
													OFFSET -5.779297 0.000000 0.000000
													CHANNELS 3 Xrotation Yrotation Zrotation
													JOINT RightHandRing4
													{
														OFFSET -4.965698 0.000000 0.000000
														CHANNELS 3 Xrotation Yrotation Zrotation
														End Site
														{
															OFFSET 0.000000 0.000000 0.000000
														}
													}
												}
											}
										}
										JOINT RightHandPinky1
										{
											OFFSET -20.037003 -1.530334 -10.950259
											CHANNELS 3 Xrotation Yrotation Zrotation
											JOINT RightHandPinky2
											{
												OFFSET -5.254700 0.000000 0.000000
												CHANNELS 3 Xrotation Yrotation Zrotation
												JOINT RightHandPinky3
												{
													OFFSET -4.810204 0.000000 0.000000
													CHANNELS 3 Xrotation Yrotation Zrotation
													JOINT RightHandPinky4
													{
														OFFSET -3.647202 0.000000 0.000000
														CHANNELS 3 Xrotation Yrotation Zrotation
														End Site
														{
															OFFSET 0.000000 0.000000 0.000000
														}
													}
												}
											}
										}
									}
								}
							}
						}
					}
				}
			}
		}
	}
	JOINT LeftUpLeg
	{
		OFFSET 15.427100 -6.655098 0.678600
		CHANNELS 3 Xrotation Yrotation Zrotation
		JOINT LeftLeg
		{
			OFFSET 4.081073 -39.591068 13.024000
			CHANNELS 3 Xrotation Yrotation Zrotation
			JOINT LeftFoot
			{
				OFFSET -4.081074 -37.707932 -15.979700
				CHANNELS 3 Xrotation Yrotation Zrotation
				JOINT LeftToeBase
				{
					OFFSET 5.346399 -15.068900 20.645000
					CHANNELS 3 Xrotation Yrotation Zrotation
					JOINT LeftToe_End
					{
						OFFSET 2.754700 0.931300 11.300900
						CHANNELS 3 Xrotation Yrotation Zrotation
						End Site
						{
							OFFSET 0.000000 0.000000 0.000000
						}
					}
				}
			}
		}
	}
	JOINT RightUpLeg
	{
		OFFSET -15.569500 -6.655098 0.678600
		CHANNELS 3 Xrotation Yrotation Zrotation
		JOINT RightLeg
		{
			OFFSET -4.081825 -39.591045 13.023800
			CHANNELS 3 Xrotation Yrotation Zrotation
			JOINT RightFoot
			{
				OFFSET 4.081824 -37.707954 -15.979600
				CHANNELS 3 Xrotation Yrotation Zrotation
				JOINT RightToeBase
				{
					OFFSET -5.346400 -15.068900 20.645000
					CHANNELS 3 Xrotation Yrotation Zrotation
					JOINT RightToe_End
					{
						OFFSET -2.754700 0.931300 11.300900
						CHANNELS 3 Xrotation Yrotation Zrotation
						End Site
						{
							OFFSET 0.000000 0.000000 0.000000
						}
					}
				}
			}
		}
	}
}
MOTION
Frames: 4
Frame Time: 0.016667
1.286724 65.445755 -3.919781 26.870943 4.018637 9.714024 32.129381 -0.657949 11.315331 3.579139 -0.232311 -3.938539 0.000000 0.000000 0.000000 3.140868 -0.180143 -2.796539 -8.309813 -0.692397 -1.107459 -23.639776 -3.178996 -4.945286 -0.000001 -0.000000 -0.000000 0.921045 -8.099540 3.227720 0.000000 0.000000 0.000000 -22.336018 21.630673 -27.124698 -0.000000 -42.110073 -0.000008 -19.024005 -3.343328 22.787944 -2.474312 3.056084 9.318483 2.660726 4.545117 0.290500 -0.839417 0.932807 2.427756 -0.000000 -0.000001 0.000001 2.838265 -9.738363 17.774756 2.946393 5.649632 -55.058049 0.699179 3.028065 -25.997966 -0.000000 -0.000001 0.000000 0.858001 -7.704098 6.320665 1.312433 4.048614 -35.909405 0.363981 2.213132 -18.676850 0.000000 0.000000 -0.000002 -0.649884 -5.105811 -7.087039 0.259765 1.877009 -15.757026 0.043762 0.776677 -6.449816 -0.000001 -0.000001 -0.000002 0.822095 3.662454 -17.520513 -0.018109 -4.056680 -0.491025 0.010680 -0.384289 3.186073 -0.000002 -0.000001 0.000001 -0.010493 -1.127504 -4.578591 0.000000 0.000000 0.000000 -38.463357 11.015784 16.018134 -0.000008 33.301294 0.000008 4.826453 13.233982 -11.856352 -9.751023 7.203369 -8.614246 10.689699 -27.430641 -3.226667 -0.579987 -1.235758 -2.241250 -0.000000 -0.000000 -0.000001 1.269058 7.231733 -10.596073 2.736409 -5.531141 52.618917 0.456479 -2.482248 20.837616 -0.000000 0.000000 -0.000000 0.008019 5.367939 0.238517 1.251964 -3.985352 34.867638 0.235180 -1.803251 14.967603 0.000001 -0.000001 -0.000002 -0.885792 3.067716 13.223270 0.268303 -1.916544 15.937065 -0.097646 -0.568393 4.588820 0.000001 0.000001 -0.000000 -0.321202 -0.767562 24.169389 0.000001 0.000007 0.000019 0.013512 0.434180 -3.565199 -0.000000 0.000001 -0.000000 -21.334972 0.459026 6.744678 56.164963 10.469554 10.051774 -38.255900 29.455689 -9.649940 -28.122307 0.000004 -0.000022 0.000000 0.000000 -0.000003 -90.626208 10.751170 -34.280774 69.306510 -6.896963 5.661335 1.054736 -8.571809 8.234280 -5.061927 -0.000000 0.000001 0.000001 -0.000002 -0.000000 
-1.033904 65.680496 -5.184227 26.696027 4.977523 9.496479 31.953373 -1.006039 12.232146 1.746688 -0.159777 -3.884515 0.000000 0.000000 0.000000 2.816150 -0.174964 -2.865949 -8.365253 -0.534004 -1.129555 -23.694836 -2.334153 -5.041155 0.000003 -0.000000 -0.000000 0.950607 -8.072897 3.889877 0.000000 0.000000 0.000000 -21.740642 19.374873 -24.833103 -0.000003 -40.497978 -0.000004 -21.811649 -2.030267 22.795020 -3.423935 1.166801 8.910746 3.907060 7.892911 0.677797 -0.446995 1.805859 2.540681 0.000000 -0.000000 0.000000 2.785947 -9.507611 17.952367 2.521388 5.328939 -50.617374 0.584088 2.780000 -23.726506 0.000003 0.000001 0.000001 0.936093 -7.392442 7.336952 1.109650 3.753371 -32.929431 0.302470 2.022183 -17.012401 0.000000 0.000002 0.000005 -0.413181 -4.737526 -5.024293 0.216259 1.715454 -14.369296 0.035187 0.696672 -5.782947 -0.000000 -0.000000 0.000002 0.804562 3.961651 -14.556257 -0.018111 -4.056670 -0.491022 0.009853 -0.368929 3.058601 0.000001 0.000002 0.000000 -0.041857 -1.088701 -5.472471 0.000000 0.000000 0.000000 -37.730484 11.255693 13.846341 0.000001 30.222737 0.000000 3.476063 11.717307 -11.121244 -9.864137 7.038892 -9.737924 10.477001 -26.771623 -3.188212 -0.703282 -0.945490 -2.223691 0.000001 0.000001 0.000000 1.125888 6.596458 -10.416801 2.303795 -5.173560 47.983684 0.362917 -2.221115 18.557518 -0.000000 -0.000000 -0.000000 0.074971 4.442790 -0.718157 1.061528 -3.697676 32.025739 0.469178 -1.540858 13.321156 0.000005 -0.000001 0.000002 -0.535944 2.183952 10.913410 0.240701 -1.817138 15.089556 0.097014 -0.476464 3.959239 -0.000001 -0.000000 0.000002 0.015825 -1.314341 20.720501 0.000238 -0.058438 0.479355 0.012721 0.421285 -3.459085 0.000001 0.000001 -0.000004 -13.385344 2.738652 5.782513 51.248917 10.767397 10.188399 -37.275843 27.594144 -10.896331 -28.027299 0.000009 -0.000006 -0.000001 -0.000003 0.000001 -91.870129 9.364428 -32.225498 70.276404 -8.616769 5.132929 0.306585 -9.444750 5.490296 -6.345390 -0.000021 -0.000002 -0.000000 -0.000000 0.000000 
-3.195209 66.116379 -6.121426 26.651980 5.863964 9.356201 31.545331 -1.537146 12.837119 0.367796 -0.148798 -3.805488 0.000000 0.000000 0.000000 2.452042 -0.190106 -2.912072 -8.421893 -0.369335 -1.154701 -23.743867 -1.464017 -5.130931 0.000002 0.000000 0.000000 0.971968 -7.959283 4.541530 0.000000 0.000000 0.000000 -21.904142 16.849250 -22.534573 0.000011 -39.098509 0.000004 -23.656391 -0.285781 22.312785 -4.431676 -0.800024 8.481207 5.173220 11.378093 1.071912 -0.051426 2.690082 2.654253 -0.000000 -0.000000 0.000001 2.732498 -9.283910 18.115106 2.105913 4.960300 -45.986438 0.474603 2.516506 -21.357308 0.000002 -0.000003 -0.000004 1.004006 -7.077136 8.380213 0.914881 3.434620 -29.823150 0.244146 1.820786 -15.272981 -0.000001 -0.000002 -0.000004 -0.204808 -4.345579 -2.882290 0.175128 1.546085 -12.923834 0.027186 0.612483 -5.082203 -0.000001 -0.000000 -0.000003 0.736812 4.283112 -11.462433 -0.018105 -4.056674 -0.491029 0.009036 -0.353444 2.930057 -0.000002 -0.000002 0.000000 -0.064568 -1.068757 -6.082267 0.000000 0.000000 0.000000 -36.713250 10.859454 12.127228 0.000005 28.694311 -0.000002 2.129579 10.864733 -10.955108 -9.976097 6.810323 -10.969732 10.202522 -25.928740 -3.142054 -0.866149 -0.563343 -2.197397 -0.000000 0.000000 0.000000 0.977037 5.907173 -10.235289 1.881493 -4.760808 43.109313 0.274941 -1.939605 16.134117 -0.000004 -0.000000 0.000001 0.109518 3.416272 -1.705886 0.874891 -3.381619 29.003493 0.673757 -1.284228 11.521452 -0.000004 0.000000 0.000000 -0.246964 1.160333 8.534749 0.210984 -1.703149 14.122061 0.264921 -0.373488 3.184009 0.000000 -0.000001 0.000003 0.293674 -2.003812 17.166646 0.001985 -0.166514 1.366386 0.012974 0.425459 -3.493375 0.000003 -0.000003 -0.000000 -6.765617 4.676949 5.172133 46.584499 11.140625 10.435520 -33.480583 23.803223 -13.258054 -34.112625 -0.000009 0.000015 -0.000001 -0.000001 -0.000002 -92.745602 8.436602 -30.977701 70.501240 -8.625842 5.228038 1.335218 -11.150862 4.695937 -7.685140 0.000022 0.000003 0.000001 -0.000003 -0.000000 
-5.178936 66.609459 -7.017605 26.697131 6.729551 9.192572 30.958085 -2.168770 13.229953 -0.692180 -0.174155 -3.672689 0.000000 0.000000 0.000000 2.092766 -0.232371 -2.897374 -8.478537 -0.199916 -1.182682 -23.788197 -0.577582 -5.217084 0.000001 -0.000000 -0.000000 0.987105 -7.809379 5.190974 0.000000 0.000000 0.000000 -22.482761 14.152354 -20.326242 -0.000001 -37.925868 -0.000004 -24.388027 1.697808 21.369763 -5.487793 -2.818734 8.036938 6.442162 14.960877 1.469185 0.345573 3.581940 2.767967 -0.000000 -0.000000 0.000000 2.678445 -9.065564 18.269446 1.713551 4.549995 -41.256153 0.374072 2.242750 -18.936583 -0.000001 0.000000 0.000001 1.059765 -6.759183 9.437035 0.733904 3.098151 -26.647744 0.190834 1.612999 -13.493836 -0.000001 -0.000001 0.000001 -0.032027 -3.934107 -0.698992 0.137373 1.371278 -11.440932 0.020042 0.526056 -4.363456 0.000000 -0.000002 -0.000001 0.614682 4.620197 -8.297759 -0.018110 -4.056677 -0.491023 0.008265 -0.337886 2.801008 -0.000000 0.000002 -0.000000 -0.084928 -1.078469 -6.512684 0.000000 0.000000 0.000000 -35.552251 9.899990 10.725424 0.000006 28.127383 -0.000003 0.580169 10.215330 -10.972600 -10.097478 6.540348 -12.274471 9.885100 -24.958449 -3.090268 -1.056515 -0.117501 -2.164885 0.000000 0.000000 0.000000 0.826399 5.179844 -10.052943 1.483130 -4.297288 38.067919 0.196072 -1.642766 13.611217 0.000000 0.000001 0.000001 0.106506 2.319782 -2.714665 0.698498 -3.042296 25.856082 0.837450 -1.039044 9.613568 -0.000002 0.000001 0.000004 -0.042786 0.035404 6.110209 0.180843 -1.578608 13.069890 0.397832 -0.264910 2.305755 0.000002 -0.000005 -0.000001 0.477111 -2.801943 13.540360 0.005164 -0.268464 2.203546 0.013991 0.441791 -3.627537 0.000001 0.000000 -0.000003 -1.391689 6.316223 4.573382 42.105873 10.702690 10.309284 -29.334597 19.808437 -14.195910 -35.199503 -0.000003 0.000019 0.000000 -0.000001 0.000000 -93.506792 7.420052 -29.659209 70.394990 -8.701308 5.330687 1.886639 -12.776529 3.051748 -9.145008 -0.000007 0.000006 -0.000000 0.000002 0.000000 
